<?xml version="1.0" encoding="iso-8859-1"?>
<!-- Uploaded to: SVG Repo, www.svgrepo.com, Generator: SVG Repo Mixer Tools -->
<svg height="800px" width="800px" version="1.1" id="Layer_1" xmlns="http://www.w3.org/2000/svg" xmlns:xlink="http://www.w3.org/1999/xlink" 
	 viewBox="0 0 512.002 512.002" xml:space="preserve">
<path style="fill:#FF5F7B;" d="M311.199,99.176H199.655c6.2,24.165,28.85,43.654,55.773,43.654
	C282.351,142.83,304.999,123.341,311.199,99.176z"/>
<path style="fill:#FFB8A7;" d="M311.211,71.558c-6.2-25.891-28.858-43.654-55.782-43.654c-26.927,0-49.587,17.763-55.785,43.654
	H311.211z"/>
<path style="fill:#FFB919;" d="M256.001,170.522c-86.67,0-156.93,70.259-156.93,156.93c0,86.67,70.26,156.93,156.93,156.93
	c86.672,0,156.93-70.26,156.93-156.93C412.933,240.78,342.673,170.522,256.001,170.522z M256.001,454.987
	c-70.322,0-127.535-57.211-127.535-127.535s57.213-127.535,127.535-127.535s127.535,57.213,127.535,127.535
	S326.325,454.987,256.001,454.987z"/>
<path d="M386.496,196.955c-21.856-21.856-48.229-37.553-77.016-46.221c18.935-15.618,31.026-39.249,31.026-65.653
	c0-46.913-38.167-85.08-85.079-85.08c-46.913,0-85.08,38.167-85.08,85.08c0,26.551,12.231,50.293,31.349,65.909
	c-28.463,8.72-54.544,24.321-76.191,45.967c-34.857,34.857-54.052,81.202-54.052,130.497c0,101.76,82.788,184.548,184.548,184.548
	c49.295,0,95.639-19.196,130.495-54.052s54.052-81.2,54.052-130.495S421.353,231.813,386.496,196.955z M256.001,484.383
	c-86.67,0-156.93-70.26-156.93-156.93c0-86.672,70.26-156.93,156.93-156.93c86.672,0,156.93,70.259,156.93,156.93
	C412.933,414.122,342.673,484.383,256.001,484.383z M255.428,27.904c26.925,0,49.584,17.763,55.782,43.654H199.641
	C205.843,45.667,228.503,27.904,255.428,27.904z M199.655,99.176h111.545c-6.2,24.165-28.848,43.654-55.772,43.654
	C228.504,142.83,205.855,123.341,199.655,99.176z"/>
<path d="M256.001,199.917c-70.322,0-127.535,57.213-127.535,127.535s57.213,127.535,127.535,127.535s127.535-57.211,127.535-127.535
	S326.325,199.917,256.001,199.917z M256.001,427.37c-55.181,0-99.918-44.737-99.918-99.918c0-55.185,44.737-99.918,99.918-99.918
	c55.183,0,99.918,44.733,99.918,99.918C355.919,382.633,311.184,427.37,256.001,427.37z"/>
</svg>