<?xml version="1.0" encoding="iso-8859-1"?>
<!-- Uploaded to: SVG Repo, www.svgrepo.com, Generator: SVG Repo Mixer Tools -->
<svg height="800px" width="800px" version="1.1" id="Layer_1" xmlns="http://www.w3.org/2000/svg" xmlns:xlink="http://www.w3.org/1999/xlink" 
	 viewBox="0 0 495.973 495.973" xml:space="preserve">
<path style="fill:#18456D;" d="M448,337.859l47.2-150.4c1.6-6.4,0.8-14.4-3.2-19.2s-9.6-9.6-16.8-9.6H20.8c-6.4,0-12.8,4-16.8,9.6
	s-4.8,12.8-3.2,18.4l47.2,151.2c0,3.2,0.8,5.6,2.4,8.8l20.8,64c2.4,8.8,10.4,12.8,19.2,12.8h315.2c8.8,0,16.8-4,19.2-12.8l20.8-64.8
	L448,337.859z M72,278.659h352l-11.2,40h-328L72,278.659z M448,198.659l-11.2,40H59.2l-11.2-40H448z M105.6,390.659l-8.8-32h302.4
	l-8.8,32H105.6z"/>
<path style="fill:#0B3249;" d="M492,175.459c-4-5.6-9.6-8.8-16.8-8.8H20.8c-6.4,0-12.8,3.2-16.8,8.8s-4.8,12-3.2,18.4l47.2,150.4
	c0,3.2,0.8,5.6,2.4,8l20.8,65.6c0.8,1.6,0.8,3.2,1.6,4c-2.4,2.4-4,7.2-4,10.4c0,7.2,5.6,14.4,12.8,14.4h332
	c7.2,0,12.8-7.2,12.8-14.4c0-3.2-1.6-7.2-4-9.6c0.8-1.6,1.6-3.2,1.6-4.8l20.8-65.6l2.4-8l47.2-150.4
	C496.8,187.459,496,180.259,492,175.459z M96.8,358.659h302.4l-8.8,40H105.6L96.8,358.659z M412,318.659H84l-12-32h352L412,318.659z
	 M436.8,246.659H59.2l-11.2-40h400L436.8,246.659z"/>
<path style="fill:#18456D;" d="M151.2,183.459c-7.2,7.2-19.2,7.2-26.4,0l-16.8-16.8c-7.2-7.2-7.2-19.2,0-26.4l84.8-84.8
	c7.2-7.2,19.2-7.2,26.4,0l16.8,16.8c7.2,7.2,7.2,19.2,0,26.4L151.2,183.459z"/>
<path style="fill:#1B5A89;" d="M129.6,161.859l84.8-84.8c6.4-6.4,7.2-16.8,1.6-24c-7.2-5.6-17.6-4.8-24,1.6l-84,85.6
	c-6.4,6.4-7.2,16.8-1.6,24C112.8,169.059,123.2,168.259,129.6,161.859z"/>
<path style="fill:#0B3249;" d="M154.4,136.259c9.6,9.6-11.2,46.4-20.8,56s-25.6,9.6-35.2,0s-9.6-25.6,0-35.2
	C108,148.259,144.8,126.659,154.4,136.259z"/>
<path style="opacity:0.2;fill:#83C9CC;enable-background:new    ;" d="M152.8,175.459c-1.6,23.2-24,32.8-36.8,29.6
	c-13.6-3.2-24.8-16-24.8-29.6s11.2-24.8,24.8-24.8S153.6,161.859,152.8,175.459z"/>
<circle style="fill:#196A9B;" cx="115.2" cy="175.459" r="24.8"/>
<g>
	<path style="fill:#1B5A89;" d="M132.8,157.859c9.6,9.6,9.6,25.6,0,35.2c-9.6,9.6-25.6,9.6-35.2,0"/>
	<path style="fill:#1B5A89;" d="M344.8,183.459c7.2,7.2,19.2,7.2,26.4,0l16.8-16.8c7.2-7.2,7.2-19.2,0-26.4l-84.8-84.8
		c-7.2-7.2-19.2-7.2-26.4,0l-16.8,16.8c-7.2,7.2-7.2,19.2,0,26.4L344.8,183.459z"/>
</g>
<path style="fill:#18456D;" d="M366.4,161.859l-84.8-84.8c-6.4-6.4-7.2-16.8-1.6-24c7.2-5.6,17.6-4.8,24,1.6l84.8,84.8
	c6.4,6.4,7.2,16.8,1.6,24C383.2,169.059,372.8,168.259,366.4,161.859z"/>
<path style="fill:#0B3249;" d="M341.6,136.259c-9.6,9.6,11.2,46.4,20.8,56c9.6,9.6,25.6,9.6,35.2,0s9.6-25.6,0-35.2
	C388,148.259,351.2,126.659,341.6,136.259z"/>
<path style="opacity:0.2;fill:#83C9CC;enable-background:new    ;" d="M343.2,175.459c1.6,23.2,24,32.8,36.8,29.6
	c13.6-3.2,24.8-16,24.8-29.6s-11.2-24.8-24.8-24.8C366.4,150.659,342.4,161.859,343.2,175.459z"/>
<circle style="fill:#1B5A89;" cx="380.8" cy="175.459" r="24.8"/>
<path style="fill:#196A9B;" d="M363.2,157.859c-9.6,9.6-9.6,25.6,0,35.2c9.6,9.6,25.6,9.6,35.2,0"/>
<path style="fill:#58A300;" d="M139.2,230.659c-16,0-35.2-2.4-43.2-6.4l0,0h-4c0,0,4,0-4,0l0,0c-8,4-27.2,6.4-43.2,6.4
	c-16.8,0-30.4-2.4-44.8-7.2v143.2c0,39.2,40,71.2,88,76.8l0,0c8,0,4,0,4,0h4l0,0c48-4.8,88-37.6,88-76.8v-143.2
	C168,228.259,156,230.659,139.2,230.659z"/>
<path style="fill:#82CC00;" d="M139.2,223.459c-16,0-35.2-21.6-43.2-25.6l0,0h-4c0,0,4,0-4,0l0,0c-8,4-27.2,25.6-43.2,25.6
	c-16.8,0-30.4-2.4-44.8-7.2v143.2c0,39.2,40,71.2,88,76.8l0,0c8,0,4,0,4,0h4l0,0c48-4.8,88-37.6,88-76.8v-142.4
	C168,221.059,156,223.459,139.2,223.459z"/>
<path style="fill:#5DBA02;" d="M88,438.659v-2.4c8,0,4,0,4,0h4l0,0c48-4.8,88-37.6,88-76.8v-142.4c-16,4.8-28,7.2-44.8,7.2
	c-16,0-35.2-21.6-43.2-25.6l0,0h-4c0,0,4,0-4,0v0"/>
<path style="fill:#58A300;" d="M77.6,365.059c-1.6,0-3.2-0.8-4.8-1.6l-28-28.8c-2.4-2.4-2.4-6.4,0-8.8s6.4-2.4,8.8,0l23.2,23.2
	l52.8-52.8c2.4-2.4,6.4-2.4,8.8,0c2.4,2.4,2.4,6.4,0,8.8l-57.6,57.6C80.8,364.259,79.2,365.059,77.6,365.059z"/>
<path style="fill:#FFFFFF;" d="M77.6,352.259c-1.6,0-3.2-0.8-4.8-1.6l-28-28c-2.4-2.4-2.4-6.4,0-8.8s6.4-2.4,8.8,0l23.2,23.2
	l52.8-52.8c2.4-2.4,6.4-2.4,8.8,0c2.4,2.4,2.4,6.4,0,8.8l-57.6,57.6C80.8,351.459,79.2,352.259,77.6,352.259z"/>
</svg>